<svg xmlns="http://www.w3.org/2000/svg" viewBox="-11.62 -63.64 286.07 101.28" role="img" aria-label="stickpicks" class="logo-svg"><defs><mask id="spdot" maskUnits="userSpaceOnUse" x="-63" y="-110" width="337" height="194"><rect x="-63" y="-110" width="337" height="194" fill="#fff"/><circle cx="140.1" cy="-33" r="5.6" fill="#000"/></mask></defs><g transform="rotate(-6 131.42 -13)"><g transform="translate(214.28 5.81) rotate(-45) scale(1.23)"><path stroke-width=".6" stroke-linejoin="round" d="M1.5 0.15 Q22 1.2 44 -0.4 Q50.5 -1 50.5 -6 Q50.5 -11.8 44.5 -11.8 L-3 -11.4 Q-7.28 -11.4 -10.08 -14.2 L-124.15 -128.27 A2.2 2.2 0 0 0 -127.27 -125.15 L-5.56 -3.44 Q-2.12 0 1.5 0.15 Z" style="fill: var(--logo-wood); stroke: var(--logo-wood);"/><line x1="-14" y1="-14.4" x2="-107.71" y2="-110.31" stroke-width=".45" stroke-linecap="round" opacity=".55" style="stroke: var(--logo-grain);"/><path d="M5 0.55 Q22 1.2 42.5 -0.25 Q41.6 -6 42.5 -11.75 L5 -11.4 Q3.6 -5.4 5 0.55 Z" style="fill: var(--logo-tape);"/><line x1="11" y1=".5" x2="12.6" y2="-11.1" stroke-width=".55" stroke-linecap="round" style="stroke: var(--logo-wrap);"/><line x1="17" y1=".5" x2="18.6" y2="-11.1" stroke-width=".55" stroke-linecap="round" style="stroke: var(--logo-wrap);"/><line x1="23" y1=".5" x2="24.6" y2="-11.1" stroke-width=".55" stroke-linecap="round" style="stroke: var(--logo-wrap);"/><line x1="29" y1=".5" x2="30.6" y2="-11.1" stroke-width=".55" stroke-linecap="round" style="stroke: var(--logo-wrap);"/><line x1="35" y1=".5" x2="36.6" y2="-11.1" stroke-width=".55" stroke-linecap="round" style="stroke: var(--logo-wrap);"/><path d="M-111.96 -116.43 L-123.98 -128.45 A2.45 2.45 0 0 0 -127.45 -124.98 L-115.43 -112.96 Q-114.05 -115.05 -111.96 -116.43 Z" style="fill: var(--logo-tape);"/><line x1="-117.45" y1="-122.96" x2="-121.96" y2="-118.45" stroke-width=".5" stroke-linecap="round" style="stroke: var(--logo-wrap);"/></g><text mask="url(#spdot)" x="0" y="0" stroke-width="3.2" stroke-linejoin="round" paint-order="stroke" style="font: 64px Yellowtail; fill: var(--logo-ink); stroke: var(--logo-bg);">stickpicks</text><path d="M134.9 -34.6v2.8a5.6 2.2 0 0 0 11.2 0v-2.8" fill="#0F1828" stroke-width="0.7" style="stroke: var(--logo-puck-rim, none);"/><ellipse cx="140.5" cy="-34.6" rx="5.6" ry="2.2" fill="#2B3D5E" stroke-width="0.7" style="stroke: var(--logo-puck-rim, none);"/></g></svg>